:SAMPLES-PER-SECOND 30
:FRAME-RANGE 1-2009
:FULLY-SPECIFIED
:DEGREES
503
root  -48.4228 39.3221 -9.19317 179.414 -27.3631 179.048
RightUpLeg  13.5934 -11.6688 -9.74734
RightLeg  3.94528 -14.3285 2.88943
RightFoot  -11.9481 0.00790051 16.8017
RightToes  4.71047e-010 1.2921e-014 -6.02303e-014
Spine  3.32886 0.5356 9.72374
Spine1  1.97331 1.5909 -4.38179
HEad  15.7281 -3.06331 -8.33025
LeftShoulder1  1.49304 -0.429571 -31.9092
LeftArm  13.7203 17.144 -26.0299
LeftForeArm  1.76232 -3.04857 -18.3548
LeftHand  0.229056 1.28643 -6.77417
RightShoulder  10.21 20.2866 36.8076
RightArm  -1.20076 21.0154 10.9664
RightForeArm  6.86573 33.4159 7.03761
RightHand  0.0388146 -1.82722 1.61506
LeftUpLeg  -16.5436 9.69469 3.8379
LeftLeg  -0.314583 26.3219 -5.62671
LeftFoot  3.00411 0.850301 -6.89707
LeftToes  2.15783e-011 -7.56106e-012 -8.20802e-012
504
root  -49.3009 38.9606 -10.0956 178.54 -29.1928 179.607
RightUpLeg  16.0111 -12.1974 -10.6279
RightLeg  5.77046 -14.0768 2.65806
RightFoot  -13.7221 0.30574 19.0661
RightToes  4.71047e-010 1.2921e-014 -6.02303e-014
Spine  3.12435 0.367168 9.39787
Spine1  2.50129 1.44754 -4.37613
HEad  16.2682 -3.03921 -7.27285
LeftShoulder1  1.46849 -0.402687 -31.5407
LeftArm  11.7049 17.7331 -25.9815
LeftForeArm  3.94921 -1.6228 -18.4981
LeftHand  0.285656 0.984001 -7.75988
RightShoulder  10.1458 19.4315 38.104
RightArm  0.177123 18.9598 10.6638
RightForeArm  9.6768 34.6988 7.21963
RightHand  0.0284249 -1.13964 0.956949
LeftUpLeg  -17.2914 12.4877 2.22171
LeftLeg  4.65528 23.5023 -3.63125
LeftFoot  2.99602 0.715776 -5.83335
LeftToes  2.15783e-011 -7.56106e-012 -8.20802e-012
505
root  -50.2629 38.6954 -10.9954 177.44 -30.3332 179.98
RightUpLeg  18.7945 -12.7412 -12.0347
RightLeg  7.28077 -12.8357 2.42575
RightFoot  -14.3232 0.468571 21.5324
RightToes  4.71047e-010 1.2921e-014 -6.02303e-014
Spine  3.70049 0.36235 8.95675
Spine1  2.39157 1.59383 -4.90503
HEad  17.196 -2.78286 -6.31367
LeftShoulder1  1.42253 -0.281828 -31.5249
LeftArm  11.5737 18.377 -25.8745
LeftForeArm  4.12446 -1.04981 -18.6255
LeftHand  0.301027 1.05051 -8.30601
RightShoulder  10.0194 18.3195 39.7304
RightArm  4.0867 16.341 10.6864
RightForeArm  10.5676 34.4631 7.10242
RightHand  -0.000417955 -1.35654 0.203429
LeftUpLeg  -17.6673 16.295 -0.241594
LeftLeg  9.21888 18.0586 -1.25803
LeftFoot  5.27474 -0.339552 2.10571
LeftToes  2.15783e-011 -7.56106e-012 -8.20802e-012
506
root  -51.248 38.5624 -11.8414 176.657 -31.0124 179.666
RightUpLeg  20.7501 -15.2254 -14.5837
RightLeg  10.1708 -9.20105 0.728433
RightFoot  -13.7615 0.446842 25.2367
RightToes  4.71047e-010 1.2921e-014 -6.02303e-014
Spine  5.27574 0.376554 7.7266
Spine1  1.3305 1.73357 -5.81015
HEad  18.3333 -2.82528 -5.10876
LeftShoulder1  1.35293 -0.0948911 -31.5404
LeftArm  11.3279 19.0366 -25.8095
LeftForeArm  3.82621 -0.564487 -18.7511
LeftHand  0.296644 1.08105 -8.25162
RightShoulder  9.86184 16.7851 42.2972
RightArm  10.7692 13.8282 10.7764
RightForeArm  9.65549 32.4687 6.62728
RightHand  -0.00817236 -1.31968 -0.0282287
LeftUpLeg  -17.8553 20.1154 -2.60936
LeftLeg  13.9246 13.449 1.3017
LeftFoot  4.48947 -0.848989 5.90439
LeftToes  2.15783e-011 -7.56106e-012 -8.20802e-012
507
root  -52.2045 38.3958 -12.6526 177.082 -32.7375 178.17
RightUpLeg  19.4917 -16.9739 -17.1143
RightLeg  17.9026 -6.42851 -2.5148
RightFoot  -12.7823 0.310028 30.9262
RightToes  4.71047e-010 1.2921e-014 -6.02303e-014
Spine  5.97751 0.464091 4.59027
Spine1  1.01658 1.39767 -5.07298
HEad  19.2797 -3.44526 -4.25871
LeftShoulder1  1.37753 -0.0539292 -32.6643
LeftArm  15.4073 17.6755 -25.8767
LeftForeArm  -1.01811 -1.22434 -19.1767
LeftHand  0.225463 1.74488 -7.61535
RightShoulder  9.35399 14.9621 44.218
RightArm  19.2079 11.1809 11.6304
RightForeArm  7.11289 28.1611 5.70675
RightHand  -0.0105568 -1.11801 -0.122625
LeftUpLeg  -18.3157 23.7919 -5.84888
LeftLeg  18.2519 7.63063 2.75011
LeftFoot  1.3286 -0.674482 5.99708
LeftToes  2.15783e-011 -7.56106e-012 -8.20802e-012
508
root  -53.0925 38.3843 -13.3567 178.381 -33.6841 176.54
RightUpLeg  14.1179 -11.0089 -16.5397
RightLeg  29.0294 -9.84767 -6.09018
RightFoot  -7.99239 -1.09691 34.5996
RightToes  4.71047e-010 1.2921e-014 -6.02303e-014
Spine  5.85586 0.826506 2.08421
Spine1  1.40409 1.50482 -5.76001
HEad  19.3895 -4.3395 -3.49465
LeftShoulder1  1.42132 -0.145136 -32.8968
LeftArm  13.4496 15.8511 -27.0399
LeftForeArm  0.600653 -0.0247456 -19.2099
LeftHand  0.202534 1.91194 -7.24562
RightShoulder  8.99519 13.6123 45.9618
RightArm  29.0716 8.12087 13.2981
RightForeArm  1.6787 21.7053 5.57899
RightHand  0.0341377 -0.275559 0.815071
LeftUpLeg  -17.2085 24.5954 -7.05557
LeftLeg  19.4241 6.39505 1.52449
LeftFoot  -1.30062 -0.4841 5.59575
LeftToes  2.15783e-011 -7.56106e-012 -8.20802e-012
509
root  -54.0225 38.5712 -14.1248 179.764 -34.8931 175.443
RightUpLeg  6.33474 -6.51429 -15.4422
RightLeg  42.5408 -11.3281 -11.1997
RightFoot  2.96892 -2.61075 20.7505
RightToes  4.71047e-010 1.2921e-014 -6.02303e-014
Spine  4.92465 0.521235 -0.390326
Spine1  1.95449 0.945226 -4.96749
HEad  18.8508 -4.20539 -3.45716
LeftShoulder1  1.46727 -0.251335 -33.0199
LeftArm  11.2712 14.7532 -28.5459
LeftForeArm  2.54336 -0.559218 -18.8313
LeftHand  0.229845 1.61139 -7.45261
RightShoulder  9.06231 13.107 47.7617
RightArm  20.9404 6.25851 13.8916
RightForeArm  13.022 11.0572 13.5539
RightHand  0.124866 0.157559 2.61016
LeftUpLeg  -14.7838 21.3782 -6.86364
LeftLeg  18.2897 8.66246 0.00357933
LeftFoot  -2.60645 -0.393856 5.35923
LeftToes  2.15783e-011 -7.56106e-012 -8.20802e-012
510
root  -54.7973 38.6021 -14.7842 -178.995 -36.4152 174.205
RightUpLeg  -0.692689 -2.85528 -14.7708
RightLeg  52.5046 -7.02613 -10.0816
RightFoot  8.74494 -2.01508 11.683
RightToes  4.71047e-010 1.2921e-014 -6.02303e-014
Spine  5.09288 -0.0156035 -3.61567
Spine1  2.24384 -0.131957 -3.79462
HEad  17.7796 -4.21493 -3.5125
LeftShoulder1  1.54394 -0.415328 -33.3412
LeftArm  12.5229 13.1174 -29.9634
LeftForeArm  2.34937 -2.66817 -18.3917
LeftHand  0.263366 1.28878 -7.76058
RightShoulder  9.26962 12.7892 49.8209
RightArm  12.6562 4.72029 13.9999
RightForeArm  22.0808 -0.516258 17.2015
RightHand  0.244906 -0.16516 5.4952
LeftUpLeg  -13.0824 15.8741 -6.98226
LeftLeg  18.0488 12.6914 -0.5179
LeftFoot  -4.26258 -0.253048 4.5049
LeftToes  2.15783e-011 -7.56106e-012 -8.20802e-012
511
root  -55.498 38.5909 -15.4722 -178.719 -38.4875 173.728
RightUpLeg  -5.72711 -0.547033 -13.7401
RightLeg  59.094 -2.65693 -5.25714
RightFoot  6.0118 -2.25021 14.9408
RightToes  4.71047e-010 1.2921e-014 -6.02303e-014
Spine  6.00796 -0.54425 -6.11388
Spine1  2.51231 -1.28667 -2.73388
HEad  16.8192 -4.85632 -3.60501
LeftShoulder1  1.60271 -0.550672 -33.4766
LeftArm  15.5972 10.6369 -31.5943
LeftForeArm  1.74798 -5.35775 -17.6898
LeftHand  0.291139 0.772617 -7.50683
RightShoulder  8.8155 11.3092 52.0866
RightArm  13.8195 2.88699 13.8768
RightForeArm  25.0696 -3.81954 17.7012
RightHand  0.312312 -0.591845 7.68763
LeftUpLeg  -11.5953 11.9262 -6.9883
LeftLeg  18.8179 14.5055 -0.316903
LeftFoot  -6.07888 -0.128262 3.58724
LeftToes  2.15783e-011 -7.56106e-012 -8.20802e-012
512
root  -56.2439 38.6302 -16.2278 -178.588 -40.6526 173.755
RightUpLeg  -10.7267 0.573918 -12.2535
RightLeg  63.5735 -1.22508 -3.25268
RightFoot  4.81706 -2.08244 14.8288
RightToes  4.71047e-010 1.2921e-014 -6.02303e-014
Spine  6.67173 -0.964036 -7.49035
Spine1  2.34827 -2.11168 -1.91777
HEad  16.4472 -5.79412 -3.7089
LeftShoulder1  1.62575 -0.609486 -33.4722
LeftArm  18.1588 8.14877 -33.2875
LeftForeArm  1.96797 -8.42263 -16.3737
LeftHand  0.286951 0.395453 -6.7829
RightShoulder  7.23898 8.35953 53.3737
RightArm  15.0479 -0.0238586 14.2718
RightForeArm  28.8095 -3.42344 17.6449
RightHand  0.298292 -1.10399 8.31819
LeftUpLeg  -9.90115 9.24483 -6.79449
LeftLeg  18.9693 15.0079 -0.347801
LeftFoot  -7.7821 -0.0389728 2.76172
LeftToes  2.15783e-011 -7.56106e-012 -8.20802e-012
513
root  -57.0176 38.6959 -17.0178 -178.411 -42.5322 173.986
RightUpLeg  -15.5623 0.994998 -10.6535
RightLeg  65.5614 -1.89749 -5.19004
RightFoot  3.05943 -1.73941 13.8726
RightToes  4.71047e-010 1.2921e-014 -6.02303e-014
Spine  6.75257 -1.42949 -8.58533
Spine1  2.15931 -2.82976 -1.03871
HEad  16.4141 -6.46868 -3.35265
LeftShoulder1  1.59425 -0.559235 -33.1874
LeftArm  18.4235 6.56883 -35.0625
LeftForeArm  2.83893 -11.825 -14.1703
LeftHand  0.271808 -0.0449795 -5.84667
RightShoulder  5.36994 5.24381 53.6983
RightArm  22.6217 -4.1483 15.133
RightForeArm  24.7105 -1.77175 18.2154
RightHand  0.320223 -0.975456 8.63224
LeftUpLeg  -8.104 7.81537 -6.53256
LeftLeg  18.5913 14.2659 -0.567005
LeftFoot  -9.32004 0.025664 1.72178
LeftToes  2.15783e-011 -7.56106e-012 -8.20802e-012
